<mxfile host="app.diagrams.net" modified="2021-01-07T04:12:56.178Z" agent="5.0 (Windows NT 10.0; WOW64) AppleWebKit/537.36 (KHTML, like Gecko) Chrome/80.0.3987.87 Safari/537.36 SE 2.X MetaSr 1.0" etag="RYIUPA8JepX5r8c-Yg_y" version="14.1.8" type="github">
  <diagram id="Y5gEffiqmxprP2AZH2fo" name="Page-1">
    <mxGraphModel dx="2520" dy="-256" grid="1" gridSize="10" guides="1" tooltips="1" connect="1" arrows="1" fold="1" page="1" pageScale="1" pageWidth="827" pageHeight="1169" math="0" shadow="0">
      <root>
        <mxCell id="0" />
        <mxCell id="1" parent="0" />
        <mxCell id="ipv8PcqW9KUQ_bz5qOPi-3" value="" style="edgeStyle=orthogonalEdgeStyle;rounded=0;orthogonalLoop=1;jettySize=auto;html=1;" parent="1" source="ipv8PcqW9KUQ_bz5qOPi-1" target="ipv8PcqW9KUQ_bz5qOPi-2" edge="1">
          <mxGeometry relative="1" as="geometry" />
        </mxCell>
        <mxCell id="ipv8PcqW9KUQ_bz5qOPi-1" value="Infinity&lt;br&gt;(query service/meta service/....)" style="rounded=1;whiteSpace=wrap;html=1;" parent="1" vertex="1">
          <mxGeometry x="-815" y="1410" width="290" height="60" as="geometry" />
        </mxCell>
        <mxCell id="ipv8PcqW9KUQ_bz5qOPi-8" value="" style="edgeStyle=orthogonalEdgeStyle;rounded=0;orthogonalLoop=1;jettySize=auto;html=1;" parent="1" source="ipv8PcqW9KUQ_bz5qOPi-2" target="ipv8PcqW9KUQ_bz5qOPi-7" edge="1">
          <mxGeometry relative="1" as="geometry" />
        </mxCell>
        <mxCell id="ipv8PcqW9KUQ_bz5qOPi-12" value="" style="edgeStyle=orthogonalEdgeStyle;rounded=0;orthogonalLoop=1;jettySize=auto;html=1;" parent="1" source="ipv8PcqW9KUQ_bz5qOPi-2" target="ipv8PcqW9KUQ_bz5qOPi-11" edge="1">
          <mxGeometry relative="1" as="geometry" />
        </mxCell>
        <mxCell id="ipv8PcqW9KUQ_bz5qOPi-2" value="Kudu&lt;br&gt;（事件/item/user）" style="rounded=1;whiteSpace=wrap;html=1;" parent="1" vertex="1">
          <mxGeometry x="-730" y="1570" width="120" height="60" as="geometry" />
        </mxCell>
        <mxCell id="ipv8PcqW9KUQ_bz5qOPi-4" value="读取" style="text;html=1;align=center;verticalAlign=middle;resizable=0;points=[];autosize=1;" parent="1" vertex="1">
          <mxGeometry x="-660" y="1510" width="40" height="20" as="geometry" />
        </mxCell>
        <mxCell id="ipv8PcqW9KUQ_bz5qOPi-33" value="" style="edgeStyle=orthogonalEdgeStyle;rounded=0;orthogonalLoop=1;jettySize=auto;html=1;" parent="1" source="ipv8PcqW9KUQ_bz5qOPi-7" target="ipv8PcqW9KUQ_bz5qOPi-32" edge="1">
          <mxGeometry relative="1" as="geometry" />
        </mxCell>
        <mxCell id="ipv8PcqW9KUQ_bz5qOPi-7" value="训练数据" style="rounded=1;whiteSpace=wrap;html=1;" parent="1" vertex="1">
          <mxGeometry x="-730" y="1700" width="120" height="60" as="geometry" />
        </mxCell>
        <mxCell id="ipv8PcqW9KUQ_bz5qOPi-21" style="edgeStyle=orthogonalEdgeStyle;rounded=0;orthogonalLoop=1;jettySize=auto;html=1;exitX=1;exitY=0.5;exitDx=0;exitDy=0;entryX=0;entryY=0.5;entryDx=0;entryDy=0;" parent="1" source="ipv8PcqW9KUQ_bz5qOPi-9" target="ipv8PcqW9KUQ_bz5qOPi-17" edge="1">
          <mxGeometry relative="1" as="geometry">
            <Array as="points">
              <mxPoint x="-360" y="1754" />
              <mxPoint x="-360" y="1730" />
            </Array>
          </mxGeometry>
        </mxCell>
        <mxCell id="ipv8PcqW9KUQ_bz5qOPi-9" value="模型" style="rounded=1;whiteSpace=wrap;html=1;" parent="1" vertex="1">
          <mxGeometry x="-520" y="1724" width="120" height="60" as="geometry" />
        </mxCell>
        <mxCell id="ipv8PcqW9KUQ_bz5qOPi-41" value="" style="edgeStyle=orthogonalEdgeStyle;rounded=0;orthogonalLoop=1;jettySize=auto;html=1;entryX=0;entryY=0.5;entryDx=0;entryDy=0;" parent="1" source="ipv8PcqW9KUQ_bz5qOPi-11" target="ipv8PcqW9KUQ_bz5qOPi-17" edge="1">
          <mxGeometry relative="1" as="geometry">
            <mxPoint x="-320" y="1600" as="targetPoint" />
            <Array as="points">
              <mxPoint x="-360" y="1600" />
              <mxPoint x="-360" y="1730" />
            </Array>
          </mxGeometry>
        </mxCell>
        <mxCell id="ipv8PcqW9KUQ_bz5qOPi-11" value="Redis&lt;br&gt;用户行为历史" style="rounded=1;whiteSpace=wrap;html=1;" parent="1" vertex="1">
          <mxGeometry x="-525" y="1570" width="125" height="60" as="geometry" />
        </mxCell>
        <mxCell id="ipv8PcqW9KUQ_bz5qOPi-16" value="" style="edgeStyle=orthogonalEdgeStyle;rounded=0;orthogonalLoop=1;jettySize=auto;html=1;" parent="1" source="ipv8PcqW9KUQ_bz5qOPi-14" target="ipv8PcqW9KUQ_bz5qOPi-15" edge="1">
          <mxGeometry relative="1" as="geometry" />
        </mxCell>
        <mxCell id="ipv8PcqW9KUQ_bz5qOPi-47" style="edgeStyle=orthogonalEdgeStyle;rounded=0;orthogonalLoop=1;jettySize=auto;html=1;" parent="1" source="ipv8PcqW9KUQ_bz5qOPi-14" target="ipv8PcqW9KUQ_bz5qOPi-46" edge="1">
          <mxGeometry relative="1" as="geometry" />
        </mxCell>
        <mxCell id="ipv8PcqW9KUQ_bz5qOPi-14" value="SF Service" style="rounded=0;whiteSpace=wrap;html=1;" parent="1" vertex="1">
          <mxGeometry x="-260" y="1410" width="280" height="60" as="geometry" />
        </mxCell>
        <mxCell id="ipv8PcqW9KUQ_bz5qOPi-18" value="" style="edgeStyle=orthogonalEdgeStyle;rounded=0;orthogonalLoop=1;jettySize=auto;html=1;" parent="1" source="ipv8PcqW9KUQ_bz5qOPi-15" target="ipv8PcqW9KUQ_bz5qOPi-17" edge="1">
          <mxGeometry relative="1" as="geometry" />
        </mxCell>
        <mxCell id="ipv8PcqW9KUQ_bz5qOPi-15" value="消息系统" style="rounded=0;whiteSpace=wrap;html=1;" parent="1" vertex="1">
          <mxGeometry x="-250" y="1560" width="120" height="60" as="geometry" />
        </mxCell>
        <mxCell id="ipv8PcqW9KUQ_bz5qOPi-20" value="" style="edgeStyle=orthogonalEdgeStyle;rounded=0;orthogonalLoop=1;jettySize=auto;html=1;" parent="1" source="ipv8PcqW9KUQ_bz5qOPi-19" edge="1">
          <mxGeometry relative="1" as="geometry">
            <mxPoint x="-190" y="1866" as="targetPoint" />
          </mxGeometry>
        </mxCell>
        <mxCell id="ipv8PcqW9KUQ_bz5qOPi-17" value="SR Push Service" style="rounded=0;whiteSpace=wrap;html=1;" parent="1" vertex="1">
          <mxGeometry x="-250" y="1700" width="120" height="60" as="geometry" />
        </mxCell>
        <mxCell id="ipv8PcqW9KUQ_bz5qOPi-23" value="" style="edgeStyle=orthogonalEdgeStyle;rounded=0;orthogonalLoop=1;jettySize=auto;html=1;" parent="1" source="ipv8PcqW9KUQ_bz5qOPi-19" target="ipv8PcqW9KUQ_bz5qOPi-22" edge="1">
          <mxGeometry relative="1" as="geometry" />
        </mxCell>
        <mxCell id="ipv8PcqW9KUQ_bz5qOPi-50" value="" style="edgeStyle=orthogonalEdgeStyle;rounded=0;orthogonalLoop=1;jettySize=auto;html=1;" parent="1" source="ipv8PcqW9KUQ_bz5qOPi-22" target="ipv8PcqW9KUQ_bz5qOPi-49" edge="1">
          <mxGeometry relative="1" as="geometry" />
        </mxCell>
        <mxCell id="ipv8PcqW9KUQ_bz5qOPi-22" value="Mysql or others" style="whiteSpace=wrap;html=1;rounded=0;" parent="1" vertex="1">
          <mxGeometry x="-250" y="1946" width="120" height="60" as="geometry" />
        </mxCell>
        <mxCell id="ipv8PcqW9KUQ_bz5qOPi-19" value="Push Result" style="whiteSpace=wrap;html=1;rounded=0;" parent="1" vertex="1">
          <mxGeometry x="-250" y="1826" width="120" height="60" as="geometry" />
        </mxCell>
        <mxCell id="ipv8PcqW9KUQ_bz5qOPi-24" value="" style="edgeStyle=orthogonalEdgeStyle;rounded=0;orthogonalLoop=1;jettySize=auto;html=1;" parent="1" source="ipv8PcqW9KUQ_bz5qOPi-17" target="ipv8PcqW9KUQ_bz5qOPi-19" edge="1">
          <mxGeometry relative="1" as="geometry">
            <mxPoint x="-190" y="1736" as="sourcePoint" />
            <mxPoint x="-190" y="1866" as="targetPoint" />
          </mxGeometry>
        </mxCell>
        <mxCell id="ipv8PcqW9KUQ_bz5qOPi-27" value="dataflow" style="text;html=1;align=center;verticalAlign=middle;resizable=0;points=[];autosize=1;" parent="1" vertex="1">
          <mxGeometry x="-600" y="1570" width="60" height="20" as="geometry" />
        </mxCell>
        <mxCell id="ipv8PcqW9KUQ_bz5qOPi-37" value="" style="edgeStyle=orthogonalEdgeStyle;rounded=0;orthogonalLoop=1;jettySize=auto;html=1;entryX=0;entryY=0.5;entryDx=0;entryDy=0;" parent="1" source="ipv8PcqW9KUQ_bz5qOPi-28" target="ipv8PcqW9KUQ_bz5qOPi-17" edge="1">
          <mxGeometry relative="1" as="geometry">
            <mxPoint x="-320" y="1870" as="targetPoint" />
            <Array as="points">
              <mxPoint x="-360" y="1870" />
              <mxPoint x="-360" y="1730" />
            </Array>
          </mxGeometry>
        </mxCell>
        <mxCell id="ipv8PcqW9KUQ_bz5qOPi-28" value="Kudu&lt;br&gt;（item2item 相似度）" style="rounded=1;whiteSpace=wrap;html=1;" parent="1" vertex="1">
          <mxGeometry x="-520" y="1840" width="120" height="60" as="geometry" />
        </mxCell>
        <mxCell id="ipv8PcqW9KUQ_bz5qOPi-34" style="edgeStyle=orthogonalEdgeStyle;rounded=0;orthogonalLoop=1;jettySize=auto;html=1;exitX=1;exitY=0.5;exitDx=0;exitDy=0;" parent="1" source="ipv8PcqW9KUQ_bz5qOPi-32" target="ipv8PcqW9KUQ_bz5qOPi-28" edge="1">
          <mxGeometry relative="1" as="geometry">
            <Array as="points">
              <mxPoint x="-560" y="1830" />
              <mxPoint x="-560" y="1870" />
            </Array>
          </mxGeometry>
        </mxCell>
        <mxCell id="ipv8PcqW9KUQ_bz5qOPi-32" value="机器学习框架" style="rounded=1;whiteSpace=wrap;html=1;" parent="1" vertex="1">
          <mxGeometry x="-730" y="1800" width="120" height="60" as="geometry" />
        </mxCell>
        <mxCell id="ipv8PcqW9KUQ_bz5qOPi-35" style="edgeStyle=orthogonalEdgeStyle;rounded=0;orthogonalLoop=1;jettySize=auto;html=1;exitX=1;exitY=0.5;exitDx=0;exitDy=0;entryX=0.005;entryY=0.597;entryDx=0;entryDy=0;entryPerimeter=0;" parent="1" source="ipv8PcqW9KUQ_bz5qOPi-32" target="ipv8PcqW9KUQ_bz5qOPi-9" edge="1">
          <mxGeometry relative="1" as="geometry">
            <mxPoint x="-617" y="1770" as="sourcePoint" />
            <mxPoint x="-540" y="1760" as="targetPoint" />
            <Array as="points">
              <mxPoint x="-560" y="1830" />
              <mxPoint x="-560" y="1760" />
            </Array>
          </mxGeometry>
        </mxCell>
        <mxCell id="ipv8PcqW9KUQ_bz5qOPi-39" value="" style="endArrow=none;dashed=1;html=1;" parent="1" edge="1">
          <mxGeometry width="50" height="50" relative="1" as="geometry">
            <mxPoint x="-310" y="2040" as="sourcePoint" />
            <mxPoint x="-310" y="1370" as="targetPoint" />
          </mxGeometry>
        </mxCell>
        <mxCell id="ipv8PcqW9KUQ_bz5qOPi-43" value="&lt;font style=&quot;font-size: 24px&quot;&gt;离线&lt;/font&gt;" style="text;html=1;align=center;verticalAlign=middle;resizable=0;points=[];autosize=1;" parent="1" vertex="1">
          <mxGeometry x="-650" y="1340" width="60" height="20" as="geometry" />
        </mxCell>
        <mxCell id="ipv8PcqW9KUQ_bz5qOPi-44" value="&lt;font style=&quot;font-size: 24px&quot;&gt;在线&lt;/font&gt;" style="text;html=1;align=center;verticalAlign=middle;resizable=0;points=[];autosize=1;" parent="1" vertex="1">
          <mxGeometry x="-220" y="1340" width="60" height="20" as="geometry" />
        </mxCell>
        <mxCell id="ipv8PcqW9KUQ_bz5qOPi-48" style="edgeStyle=orthogonalEdgeStyle;rounded=0;orthogonalLoop=1;jettySize=auto;html=1;" parent="1" source="ipv8PcqW9KUQ_bz5qOPi-46" target="ipv8PcqW9KUQ_bz5qOPi-17" edge="1">
          <mxGeometry relative="1" as="geometry">
            <Array as="points">
              <mxPoint x="-50" y="1730" />
            </Array>
          </mxGeometry>
        </mxCell>
        <mxCell id="ipv8PcqW9KUQ_bz5qOPi-46" value="KV存储(选品，受众)" style="rounded=0;whiteSpace=wrap;html=1;" parent="1" vertex="1">
          <mxGeometry x="-110" y="1560" width="120" height="60" as="geometry" />
        </mxCell>
        <mxCell id="ipv8PcqW9KUQ_bz5qOPi-49" value="SF Service" style="whiteSpace=wrap;html=1;rounded=0;" parent="1" vertex="1">
          <mxGeometry x="-250" y="2086" width="120" height="60" as="geometry" />
        </mxCell>
        <mxCell id="ipv8PcqW9KUQ_bz5qOPi-51" value="读取" style="text;html=1;align=center;verticalAlign=middle;resizable=0;points=[];autosize=1;" parent="1" vertex="1">
          <mxGeometry x="-40" y="1670" width="40" height="20" as="geometry" />
        </mxCell>
        <mxCell id="ipv8PcqW9KUQ_bz5qOPi-52" value="读取" style="text;html=1;align=center;verticalAlign=middle;resizable=0;points=[];autosize=1;" parent="1" vertex="1">
          <mxGeometry x="-170" y="2030" width="40" height="20" as="geometry" />
        </mxCell>
        <mxCell id="ipv8PcqW9KUQ_bz5qOPi-53" value="写入" style="text;html=1;align=center;verticalAlign=middle;resizable=0;points=[];autosize=1;" parent="1" vertex="1">
          <mxGeometry x="-170" y="1900" width="40" height="20" as="geometry" />
        </mxCell>
      </root>
    </mxGraphModel>
  </diagram>
</mxfile>
